<svg width="26" height="27" viewBox="0 0 26 27" fill="none" xmlns="http://www.w3.org/2000/svg">
<path opacity="0.2" d="M7.16783 22.5335C7.09337 22.6091 7.0046 22.6692 6.90671 22.7102C6.80881 22.7512 6.70375 22.7723 6.59762 22.7723C6.49149 22.7723 6.38642 22.7512 6.28853 22.7102C6.19063 22.6692 6.10187 22.6091 6.0274 22.5335L3.96661 20.4727C3.891 20.3983 3.83095 20.3095 3.78996 20.2116C3.74897 20.1137 3.72786 20.0086 3.72786 19.9025C3.72786 19.7964 3.74897 19.6913 3.78996 19.5934C3.83095 19.4955 3.891 19.4068 3.96661 19.3323L14.6007 8.69824L17.8019 11.8995L7.16783 22.5335Z" fill="#009379"/>
<path d="M21.8034 13.5V18.3018" stroke="#009379" stroke-width="1.44817" stroke-linecap="round" stroke-linejoin="round"/>
<path d="M19.4025 15.9009H24.2043" stroke="#009379" stroke-width="1.44817" stroke-linecap="round" stroke-linejoin="round"/>
<path d="M8.59838 4.69653V8.69806" stroke="#009379" stroke-width="1.44817" stroke-linecap="round" stroke-linejoin="round"/>
<path d="M6.59762 6.69727H10.5991" stroke="#009379" stroke-width="1.44817" stroke-linecap="round" stroke-linejoin="round"/>
<path d="M17.0016 19.1021V22.3033" stroke="#009379" stroke-width="1.44817" stroke-linecap="round" stroke-linejoin="round"/>
<path d="M15.401 20.7026H18.6022" stroke="#009379" stroke-width="1.44817" stroke-linecap="round" stroke-linejoin="round"/>
<path d="M18.8449 4.45959L3.9688 19.3357C3.65626 19.6482 3.65626 20.155 3.9688 20.4675L6.03787 22.5366C6.35041 22.8491 6.85714 22.8491 7.16967 22.5366L22.0458 7.66047C22.3583 7.34793 22.3583 6.8412 22.0458 6.52866L19.9767 4.45959C19.6642 4.14705 19.1575 4.14705 18.8449 4.45959Z" stroke="#009379" stroke-width="1.44817" stroke-linecap="round" stroke-linejoin="round"/>
<path d="M14.6007 8.69824L17.8019 11.8995" stroke="#009379" stroke-width="1.44817" stroke-linecap="round" stroke-linejoin="round"/>
</svg>
