<svg width="26" height="27" viewBox="0 0 26 27" fill="none" xmlns="http://www.w3.org/2000/svg">
<path opacity="0.2" d="M21.0031 4.69653H17.8019C17.3599 4.69653 17.0016 5.05484 17.0016 5.49684V8.69806C17.0016 9.14005 17.3599 9.49836 17.8019 9.49836H21.0031C21.4451 9.49836 21.8034 9.14005 21.8034 8.69806V5.49684C21.8034 5.05484 21.4451 4.69653 21.0031 4.69653Z" fill="#009379"/>
<path opacity="0.2" d="M4.99702 4.74179H8.19824C8.61524 4.74179 8.95329 5.07984 8.95329 5.49684V8.69806C8.95329 9.11506 8.61524 9.45311 8.19824 9.45311H4.99702C4.58002 9.45311 4.24197 9.11506 4.24197 8.69806V5.49684C4.24197 5.07984 4.58002 4.74179 4.99702 4.74179Z" fill="#009379" stroke="#009379" stroke-width="0.0905107"/>
<path opacity="0.2" d="M17.8019 17.5467H21.0031C21.4201 17.5467 21.7582 17.8848 21.7582 18.3018V21.503C21.7582 21.92 21.4201 22.258 21.0031 22.258H17.8019C17.3849 22.258 17.0468 21.92 17.0468 21.503V18.3018C17.0468 17.8848 17.3849 17.5467 17.8019 17.5467Z" fill="#009379" stroke="#009379" stroke-width="0.0905107"/>
<path opacity="0.2" d="M4.99702 17.5467H8.19824C8.61524 17.5467 8.95329 17.8848 8.95329 18.3018V21.503C8.95329 21.92 8.61524 22.258 8.19824 22.258H4.99702C4.58002 22.258 4.24197 21.92 4.24197 21.503V18.3018C4.24197 17.8848 4.58002 17.5467 4.99702 17.5467Z" fill="#009379" stroke="#009379" stroke-width="0.0905107"/>
<path d="M21.0031 4.69653H17.8019C17.3599 4.69653 17.0016 5.05484 17.0016 5.49684V8.69806C17.0016 9.14005 17.3599 9.49836 17.8019 9.49836H21.0031C21.4451 9.49836 21.8034 9.14005 21.8034 8.69806V5.49684C21.8034 5.05484 21.4451 4.69653 21.0031 4.69653Z" stroke="#009379" stroke-width="1.44817" stroke-linecap="round" stroke-linejoin="round"/>
<path d="M8.19824 4.69653H4.99702C4.55502 4.69653 4.19672 5.05484 4.19672 5.49684V8.69806C4.19672 9.14005 4.55502 9.49836 4.99702 9.49836H8.19824C8.64024 9.49836 8.99855 9.14005 8.99855 8.69806V5.49684C8.99855 5.05484 8.64024 4.69653 8.19824 4.69653Z" stroke="#009379" stroke-width="1.44817" stroke-linecap="round" stroke-linejoin="round"/>
<path d="M21.0031 17.5015H17.8019C17.3599 17.5015 17.0016 17.8598 17.0016 18.3018V21.503C17.0016 21.945 17.3599 22.3033 17.8019 22.3033H21.0031C21.4451 22.3033 21.8034 21.945 21.8034 21.503V18.3018C21.8034 17.8598 21.4451 17.5015 21.0031 17.5015Z" stroke="#009379" stroke-width="1.44817" stroke-linecap="round" stroke-linejoin="round"/>
<path d="M8.19824 17.5015H4.99702C4.55502 17.5015 4.19672 17.8598 4.19672 18.3018V21.503C4.19672 21.945 4.55502 22.3033 4.99702 22.3033H8.19824C8.64024 22.3033 8.99855 21.945 8.99855 21.503V18.3018C8.99855 17.8598 8.64024 17.5015 8.19824 17.5015Z" stroke="#009379" stroke-width="1.44817" stroke-linecap="round" stroke-linejoin="round"/>
<path d="M6.59763 17.5016V9.49854" stroke="#009379" stroke-width="1.44817" stroke-linecap="round" stroke-linejoin="round"/>
<path d="M17.0016 19.9023H8.99854" stroke="#009379" stroke-width="1.44817" stroke-linecap="round" stroke-linejoin="round"/>
<path d="M19.4025 9.49854V17.5016" stroke="#009379" stroke-width="1.44817" stroke-linecap="round" stroke-linejoin="round"/>
<path d="M8.99854 7.09741H17.0016" stroke="#009379" stroke-width="1.44817" stroke-linecap="round" stroke-linejoin="round"/>
</svg>
