<svg width="26" height="27" viewBox="0 0 26 27" fill="none" xmlns="http://www.w3.org/2000/svg">
<path opacity="0.2" d="M17.9019 7.57764C18.3599 8.41157 18.6007 9.34729 18.6022 10.2987V10.6888C18.6038 11.0501 18.4816 11.4011 18.2559 11.6832C18.0302 11.9654 17.7146 12.1617 17.3617 12.2394C15.9303 12.5594 14.4668 12.7138 13.0001 12.6996C11.5334 12.7138 10.0699 12.5594 8.63841 12.2394C8.28556 12.1617 7.97 11.9654 7.74429 11.6832C7.51857 11.4011 7.39634 11.0501 7.39794 10.6888V10.3787C7.39852 9.39673 7.65357 8.43167 8.13822 7.57764C4.38679 8.34793 1.79581 9.99856 1.79581 11.8993C1.79581 14.5503 6.80772 16.7011 13.0001 16.7011C19.1924 16.7011 24.2043 14.5503 24.2043 11.8993C24.2043 9.99856 21.6334 8.35793 17.9019 7.57764Z" fill="#009379"/>
<path d="M17.0816 19.5723L17.4718 21.9332" stroke="#009379" stroke-width="1.44817" stroke-linecap="round" stroke-linejoin="round"/>
<path d="M13.0001 19.9023V23.1036" stroke="#009379" stroke-width="1.44817" stroke-linecap="round" stroke-linejoin="round"/>
<path d="M8.9185 19.5723L8.52835 21.9332" stroke="#009379" stroke-width="1.44817" stroke-linecap="round" stroke-linejoin="round"/>
<path d="M17.9019 7.57764C21.6334 8.35793 24.2043 9.99856 24.2043 11.8993C24.2043 14.5503 19.1924 16.7011 13.0001 16.7011C6.80772 16.7011 1.79581 14.5503 1.79581 11.8993C1.79581 9.99856 4.38679 8.34793 8.13822 7.57764" stroke="#009379" stroke-width="1.44817" stroke-linecap="round" stroke-linejoin="round"/>
<path d="M7.39793 10.6888C7.39633 11.0501 7.51857 11.401 7.74428 11.6832C7.96999 11.9653 8.28555 12.1616 8.63841 12.2394C10.0699 12.5593 11.5334 12.7137 13.0001 12.6995C14.4668 12.7137 15.9303 12.5593 17.3617 12.2394C17.7146 12.1616 18.0301 11.9653 18.2559 11.6832C18.4816 11.401 18.6038 11.0501 18.6022 10.6888V10.2986C18.6023 9.557 18.4551 8.82276 18.1692 8.13847C17.8833 7.45419 17.4643 6.83348 16.9367 6.31234C16.409 5.79121 15.7832 5.38003 15.0954 5.10265C14.4076 4.82527 13.6716 4.68721 12.93 4.69648C9.84887 4.7365 7.39793 7.30748 7.39793 10.3786V10.6888Z" stroke="#009379" stroke-width="1.44817" stroke-linecap="round" stroke-linejoin="round"/>
</svg>
