<svg width="26" height="27" viewBox="0 0 26 27" fill="none" xmlns="http://www.w3.org/2000/svg">
<path opacity="0.2" d="M3.50645 8.15796C3.43396 8.28246 3.39597 8.42404 3.3964 8.56812V18.4319C3.39717 18.5744 3.43549 18.7141 3.5075 18.8371C3.57951 18.96 3.68266 19.0618 3.80656 19.1321L12.6099 24.084C12.7286 24.1518 12.8634 24.1864 13.0001 24.1841L13.0901 13.5L3.50645 8.15796Z" fill="#009379"/>
<path d="M22.6037 18.4317V8.56797C22.603 8.42549 22.5646 8.28574 22.4926 8.16279C22.4206 8.03985 22.3175 7.93806 22.1936 7.86771L13.3902 2.91582C13.2716 2.84733 13.137 2.81128 13.0001 2.81128C12.8631 2.81128 12.7285 2.84733 12.6099 2.91582L3.80656 7.86771C3.68266 7.93806 3.57951 8.03985 3.5075 8.16279C3.43549 8.28574 3.39717 8.42549 3.3964 8.56797V18.4317C3.39717 18.5742 3.43549 18.714 3.5075 18.8369C3.57951 18.9599 3.68266 19.0616 3.80656 19.132L12.6099 24.0839C12.7285 24.1524 12.8631 24.1884 13.0001 24.1884C13.137 24.1884 13.2716 24.1524 13.3902 24.0839L22.1936 19.132C22.3175 19.0616 22.4206 18.9599 22.4926 18.8369C22.5646 18.714 22.603 18.5742 22.6037 18.4317V18.4317Z" stroke="#009379" stroke-width="1.44817" stroke-linecap="round" stroke-linejoin="round"/>
<path d="M17.9019 15.951V10.749L8.19824 5.39697" stroke="#009379" stroke-width="1.44817" stroke-linecap="round" stroke-linejoin="round"/>
<path d="M22.4937 8.15796L13.0901 13.5L3.50645 8.15796" stroke="#009379" stroke-width="1.44817" stroke-linecap="round" stroke-linejoin="round"/>
<path d="M13.0901 13.5L13.0001 24.1841" stroke="#009379" stroke-width="1.44817" stroke-linecap="round" stroke-linejoin="round"/>
</svg>
